<?xml version="1.0" encoding="UTF-8"?>
<svg width="20px" height="22px" viewBox="0 0 20 22" version="1.1" xmlns="http://www.w3.org/2000/svg" xmlns:xlink="http://www.w3.org/1999/xlink">
    <!-- Generator: sketchtool 53 (72520) - https://sketchapp.com -->
    <title>F51A71E4-502E-4857-8F51-17FE7E233711</title>
    <desc>Created with sketchtool.</desc>
    <g id="2" stroke="none" stroke-width="1" fill="none" fill-rule="evenodd">
        <g id="чат-результат-встреча-1920x1080" transform="translate(-1780.000000, -869.000000)">
            <g id="result" transform="translate(1290.000000, 280.000000)">
                <g id="form" transform="translate(20.000000, 176.000000)">
                    <g id="date" transform="translate(255.000000, 404.000000)">
                        <g id="calendar" transform="translate(213.000000, 8.000000)">
                            <polygon id="Path" points="0 0 24 0 24 24 0 24"></polygon>
                            <path d="M20,3 L19,3 L19,2 C19,1.45 18.55,1 18,1 C17.45,1 17,1.45 17,2 L17,3 L7,3 L7,2 C7,1.45 6.55,1 6,1 C5.45,1 5,1.45 5,2 L5,3 L4,3 C2.9,3 2,3.9 2,5 L2,21 C2,22.1 2.9,23 4,23 L20,23 C21.1,23 22,22.1 22,21 L22,5 C22,3.9 21.1,3 20,3 Z M19,21 L5,21 C4.45,21 4,20.55 4,20 L4,8 L20,8 L20,20 C20,20.55 19.55,21 19,21 Z" id="Shape" fill="#4A90E2" fill-rule="nonzero"></path>
                        </g>
                    </g>
                </g>
            </g>
        </g>
    </g>
</svg>