<?xml version="1.0" encoding="UTF-8"?>
<svg width="18px" height="13px" viewBox="0 0 18 13" version="1.1" xmlns="http://www.w3.org/2000/svg" xmlns:xlink="http://www.w3.org/1999/xlink">
    <!-- Generator: sketchtool 53 (72520) - https://sketchapp.com -->
    <title>E1F7A68E-367C-463C-9024-12E103DA8C2A</title>
    <desc>Created with sketchtool.</desc>
    <g id="2" stroke="none" stroke-width="1" fill="none" fill-rule="evenodd">
        <g id="чат-результат-встреча-1920x1080" transform="translate(-1768.000000, -664.000000)">
            <g id="result" transform="translate(1290.000000, 280.000000)">
                <g id="form" transform="translate(20.000000, 176.000000)">
                    <g id="list" transform="translate(0.000000, 110.000000)">
                        <g id="check" transform="translate(455.000000, 92.000000)">
                            <polygon id="Path" points="0 0 24 0 24 24 0 24"></polygon>
                            <path d="M9,16.17 L5.53,12.7 C5.14,12.31 4.51,12.31 4.12,12.7 C3.73,13.09 3.73,13.72 4.12,14.11 L8.3,18.29 C8.69,18.68 9.32,18.68 9.71,18.29 L20.29,7.71 C20.68,7.32 20.68,6.69 20.29,6.3 C19.9,5.91 19.27,5.91 18.88,6.3 L9,16.17 Z" id="Path" fill="#4A90E2" fill-rule="nonzero"></path>
                        </g>
                    </g>
                </g>
            </g>
        </g>
    </g>
</svg>